<svg width="300" height="300" viewBox="0 0 300 300" xmlns="http://www.w3.org/2000/svg">
    <rect width="300" height="300" fill="#2d8b63"/>
    <g transform="translate(150, 150) scale(0.8)">
        <path d="M100,50 C120,30 140,20 160,20 C180,20 200,30 220,50 C240,70 250,90 250,110 C250,130 240,150 220,170 C200,190 180,200 160,200 C140,200 120,190 100,170 C80,150 70,130 70,110 C70,90 80,70 100,50 Z" fill="none" stroke="#f7d794" stroke-width="8" stroke-linejoin="round"/>
        <path d="M130,100 C130,120 150,140 170,140 C190,140 210,120 210,100 C210,80 190,60 170,60 C150,60 130,80 130,100 Z" fill="#f7d794"/>
        <path d="M150,80 L170,80 L170,100 L150,100 Z" fill="#2d8b63"/>
        <path d="M160,110 L160,130" stroke="#2d8b63" stroke-width="6" stroke-linecap="round"/>
        <circle cx="150" cy="150" r="10" fill="#f7d794"/>
        <circle cx="170" cy="150" r="10" fill="#f7d794"/>
        <circle cx="160" cy="170" r="10" fill="#f7d794"/>
        <path d="M130,190 Q160,210 190,190" fill="none" stroke="#f7d794" stroke-width="4" stroke-linecap="round"/>
        <text x="160" y="220" font-family="Arial, sans-serif" font-size="14" font-weight="bold" fill="#f7d794" text-anchor="middle">THE BIRD SONG</text>
        <text x="160" y="240" font-family="Arial, sans-serif" font-size="12" fill="#f7d794" text-anchor="middle">NOAH FLOBERSCH</text>
    </g>
</svg>